HIERARCHY
ROOT Hips
{
	OFFSET 0.000000 0.000000 0.000000
	CHANNELS 6 Xposition Yposition Zposition Xrotation Yrotation Zrotation
	JOINT LeftUpLeg_virtual
	{
		OFFSET 0.000000 0.000000 0.000000
		CHANNELS 3 Xrotation Yrotation Zrotation
		JOINT LeftUpLeg
		{
			OFFSET 15.427100 -6.655098 0.678600
			CHANNELS 3 Xrotation Yrotation Zrotation
			JOINT LeftLeg
			{
				OFFSET 4.081073 -39.591068 13.024000
				CHANNELS 3 Xrotation Yrotation Zrotation
				JOINT LeftFoot
				{
					OFFSET -4.081074 -37.707932 -15.979700
					CHANNELS 3 Xrotation Yrotation Zrotation
					JOINT LeftToeBase
					{
						OFFSET 5.346399 -15.068900 20.645000
						CHANNELS 3 Xrotation Yrotation Zrotation
						JOINT LeftToe_End
						{
							OFFSET 2.754700 0.931300 11.300900
							CHANNELS 3 Xrotation Yrotation Zrotation
							End Site
							{
								OFFSET 0 0 0
							}
						}
					}
				}
			}
		}
	}
	JOINT RightUpLeg_virtual
	{
		OFFSET 0.000000 0.000000 0.000000
		CHANNELS 3 Xrotation Yrotation Zrotation
		JOINT RightUpLeg
		{
			OFFSET -15.569500 -6.655098 0.678600
			CHANNELS 3 Xrotation Yrotation Zrotation
			JOINT RightLeg
			{
				OFFSET -4.081825 -39.591045 13.023800
				CHANNELS 3 Xrotation Yrotation Zrotation
				JOINT RightFoot
				{
					OFFSET 4.081824 -37.707954 -15.979600
					CHANNELS 3 Xrotation Yrotation Zrotation
					JOINT RightToeBase
					{
						OFFSET -5.346400 -15.068900 20.645000
						CHANNELS 3 Xrotation Yrotation Zrotation
						JOINT RightToe_End
						{
							OFFSET -2.754700 0.931300 11.300900
							CHANNELS 3 Xrotation Yrotation Zrotation
							End Site
							{
								OFFSET 0 0 0
							}
						}
					}
				}
			}
		}
	}
	JOINT Spine_virtual
	{
		OFFSET 0.000000 0.000000 0.000000
		CHANNELS 3 Xrotation Yrotation Zrotation
		JOINT Spine
		{
			OFFSET -0.279200 12.230698 -2.892100
			CHANNELS 3 Xrotation Yrotation Zrotation
			JOINT Spine1
			{
				OFFSET -0.232667 10.192268 -1.242267
				CHANNELS 3 Xrotation Yrotation Zrotation
				JOINT Spine1_split
				{
					OFFSET -0.232667 10.192268 -1.242267
					CHANNELS 3 Xrotation Yrotation Zrotation
					JOINT Spine2
					{
						OFFSET -0.232667 10.192268 -1.242267
						CHANNELS 3 Xrotation Yrotation Zrotation
						JOINT Neck_virtual
						{
							OFFSET 0.000000 0.000000 0.000000
							CHANNELS 3 Xrotation Yrotation Zrotation
							JOINT Neck
							{
								OFFSET -0.418800 17.814194 8.416900
								CHANNELS 3 Xrotation Yrotation Zrotation
								JOINT Head
								{
									OFFSET 0.000000 7.031097 3.806800
									CHANNELS 3 Xrotation Yrotation Zrotation
									JOINT HeadTop_End
									{
										OFFSET 0.000000 24.646606 12.978600
										CHANNELS 3 Xrotation Yrotation Zrotation
										End Site
										{
											OFFSET 0 0 0
										}
									}
								}
							}
						}
						JOINT LeftShoulder_virtual
						{
							OFFSET 0.000000 0.000000 0.000000
							CHANNELS 3 Xrotation Yrotation Zrotation
							JOINT LeftShoulder
							{
								OFFSET 8.476499 7.247704 -3.868750
								CHANNELS 3 Xrotation Yrotation Zrotation
								JOINT LeftShoulder_split
								{
									OFFSET 8.476499 7.247704 -3.868750
									CHANNELS 3 Xrotation Yrotation Zrotation
									JOINT LeftArm
									{
										OFFSET 9.308998 -2.777710 0.208600
										CHANNELS 3 Xrotation Yrotation Zrotation
										JOINT LeftForeArm
										{
											OFFSET 29.972298 0.000000 0.000000
											CHANNELS 3 Xrotation Yrotation Zrotation
											JOINT LeftHand
											{
												OFFSET 26.026505 0.000000 0.000000
												CHANNELS 3 Xrotation Yrotation Zrotation
												End Site
												{
													OFFSET 0 0 0
												}
											}
										}
									}
								}
							}
						}
						JOINT RightShoulder_virtual
						{
							OFFSET 0.000000 0.000000 0.000000
							CHANNELS 3 Xrotation Yrotation Zrotation
							JOINT RightShoulder
							{
								OFFSET -7.570500 7.247704 -3.868750
								CHANNELS 3 Xrotation Yrotation Zrotation
								JOINT RightShoulder_split
								{
									OFFSET -7.570500 7.247704 -3.868750
									CHANNELS 3 Xrotation Yrotation Zrotation
									JOINT RightArm
									{
										OFFSET -9.308998 -2.777710 0.208500
										CHANNELS 3 Xrotation Yrotation Zrotation
										JOINT RightForeArm
										{
											OFFSET -29.972300 0.000000 0.000000
											CHANNELS 3 Xrotation Yrotation Zrotation
											JOINT RightHand
											{
												OFFSET -26.026505 0.000000 0.000000
												CHANNELS 3 Xrotation Yrotation Zrotation
												End Site
												{
													OFFSET 0 0 0
												}
											}
										}
									}
								}
							}
						}
					}
				}
			}
		}
	}
}
MOTION
Frames: 11
Frame Time: 0.03333333
-0.721678 76.702278 -1.322426 0.000000 0.000000 0.000000 2.241410 -62.976591 5.416455 -33.652089 6.036037 31.149412 39.833189 -8.240175 -9.755324 -7.464051 -2.360244 -10.523094 0.321970 0.751645 -0.089633 0.000000 0.000000 0.000000 1.266827 -61.531487 5.412045 -28.924816 -3.832494 -34.837359 47.284850 7.848193 -3.263196 -21.667073 -1.463891 24.175164 4.538140 0.501783 0.625499 0.000000 0.000000 0.000000 1.879110 -61.724638 5.130676 10.335575 1.122276 -2.112981 9.151057 -0.083293 -5.820366 0.798564 -2.996465 1.470564 0.000000 0.000000 0.000000 10.174116 0.280709 -5.794858 -18.795460 20.967170 10.544140 5.132627 29.888877 -5.865079 0.000000 0.000000 0.000000 10.979329 -0.220845 -5.499097 -6.340088 -10.835765 -4.431230 0.295491 -0.042006 -3.585592 -19.793328 8.424996 -34.019099 2.626099 -46.670556 2.309487 0.000000 0.000000 0.000000 10.097409 -0.066026 -5.395247 -4.710434 10.926052 3.933015 4.348347 2.418010 -0.659178 -34.556225 -20.804807 36.394045 -155.337790 63.305567 153.389684 0.000000 0.000000 0.000000 
-0.719430 76.691986 -1.134857 0.000000 0.000000 0.000000 2.186707 -62.961961 5.450315 -33.616258 6.114910 31.001614 39.879125 -8.162307 -9.771101 -7.552622 -2.321137 -10.425004 0.309614 0.728845 -0.046785 0.000000 0.000000 0.000000 1.192747 -61.631379 5.422899 -28.903858 -3.757695 -35.069784 47.372546 7.926849 -3.197979 -21.712729 -1.532395 24.152544 4.404582 0.531892 0.599977 0.000000 0.000000 0.000000 1.937076 -61.755442 5.227590 10.341777 1.180653 -2.154593 9.181732 -0.038307 -5.803724 0.810486 -3.128369 1.462848 0.000000 0.000000 0.000000 10.197579 0.309234 -5.812462 -18.666108 20.836872 10.645685 5.030283 29.858018 -5.853248 0.000000 0.000000 0.000000 11.001627 -0.207341 -5.471595 -6.373074 -10.980876 -4.440398 0.174701 -0.155672 -3.544007 -19.934284 8.341383 -34.040652 2.442455 -46.497875 2.334801 0.000000 0.000000 0.000000 9.982526 -0.065875 -5.368999 -4.731550 10.908225 3.909929 4.638161 2.350769 -0.644435 -34.519616 -20.890724 36.650812 -155.274966 63.084966 153.150135 0.000000 0.000000 0.000000 
-0.623467 76.710495 -0.877232 0.000000 0.000000 0.000000 2.176294 -62.882922 5.551685 -33.524822 6.198782 30.716457 40.076722 -8.137277 -9.787829 -7.793046 -2.340007 -10.198594 0.252893 0.698183 0.013026 0.000000 0.000000 0.000000 1.151381 -61.630716 5.486373 -28.698976 -3.818187 -35.494949 47.104396 8.033800 -3.150912 -21.608185 -1.587931 24.313744 4.306049 0.543857 0.611406 0.000000 0.000000 0.000000 2.033712 -61.755756 5.401973 10.319764 1.282563 -2.225381 9.215882 0.002396 -5.761537 0.839952 -3.162636 1.419625 0.000000 0.000000 0.000000 10.200466 0.337102 -5.804163 -18.558012 20.544576 10.738396 4.926696 29.673665 -6.060783 0.000000 0.000000 0.000000 10.986270 -0.209103 -5.423913 -6.418227 -11.141511 -4.547206 -0.017074 -0.221984 -3.564716 -20.351635 7.998206 -33.961862 2.450059 -45.925386 2.636916 0.000000 0.000000 0.000000 9.857998 -0.068694 -5.324689 -4.780883 10.886837 4.063817 4.734577 2.246884 -0.591173 -34.285897 -21.176462 37.056167 -155.542177 63.304147 152.884946 0.000000 0.000000 0.000000 
-0.447993 76.746605 -0.572826 0.000000 0.000000 0.000000 2.229898 -62.781965 5.722766 -33.418695 6.274343 30.318957 40.418553 -8.146609 -9.812172 -8.155628 -2.418243 -9.856340 0.202338 0.661993 0.084156 0.000000 0.000000 0.000000 1.164443 -61.543679 5.603555 -28.375937 -3.988414 -36.076226 46.507820 8.156023 -3.105064 -21.349411 -1.628329 24.632452 4.259370 0.541688 0.644525 0.000000 0.000000 0.000000 2.147765 -61.724713 5.611788 10.274716 1.409260 -2.314316 9.251478 0.035461 -5.693358 0.849118 -3.125801 1.311114 0.000000 0.000000 0.000000 10.185529 0.358291 -5.765664 -18.481556 20.050551 10.845641 4.836352 29.314113 -6.481774 0.000000 0.000000 0.000000 10.937804 -0.223400 -5.349696 -6.475778 -11.291065 -4.728564 -0.323162 -0.214679 -3.592277 -20.926719 7.459056 -33.801841 2.620337 -45.132469 3.183500 0.000000 0.000000 0.000000 9.728291 -0.077940 -5.260621 -4.856784 10.874862 4.359593 4.645353 2.130480 -0.517717 -34.022600 -21.596939 37.515323 -156.023787 64.006297 152.482553 0.000000 0.000000 0.000000 
-0.219115 76.803391 -0.198166 0.000000 0.000000 0.000000 2.333582 -62.681261 5.941986 -33.310727 6.351039 29.817894 40.857673 -8.147096 -9.843977 -8.617777 -2.528826 -9.402858 0.185413 0.625064 0.158758 0.000000 0.000000 0.000000 1.236392 -61.426972 5.771162 -27.998025 -4.224183 -36.757599 45.614373 8.298131 -3.047370 -20.960181 -1.639237 25.088238 4.223410 0.528065 0.677004 0.000000 0.000000 0.000000 2.274930 -61.657422 5.823474 10.206317 1.536359 -2.408788 9.283795 0.056850 -5.597874 0.852029 -3.002403 1.200640 0.000000 0.000000 0.000000 10.160154 0.365856 -5.696665 -18.428141 19.317337 10.988656 4.765575 28.771451 -7.117475 0.000000 0.000000 0.000000 10.860376 -0.244824 -5.243177 -6.547394 -11.421429 -4.979718 -0.653311 -0.119911 -3.617167 -21.527626 6.800815 -33.598192 2.859781 -44.374513 3.895262 0.000000 0.000000 0.000000 9.600516 -0.095111 -5.178519 -4.951025 10.881136 4.759124 4.433940 2.010529 -0.364824 -33.890077 -22.021653 37.907372 -156.554575 65.201163 151.788182 0.000000 0.000000 0.000000 
0.029969 76.892563 0.262749 0.000000 0.000000 0.000000 2.463135 -62.603499 6.179478 -33.183900 6.447584 29.229132 41.332572 -8.097698 -9.878626 -9.172581 -2.633277 -8.859030 0.207013 0.592838 0.227518 0.000000 0.000000 0.000000 1.347824 -61.331240 5.966647 -27.614943 -4.492872 -37.486981 44.480425 8.446410 -2.963593 -20.427743 -1.615382 25.653497 4.128769 0.505604 0.693732 0.000000 0.000000 0.000000 2.417221 -61.580822 6.024827 10.114977 1.640082 -2.498688 9.310204 0.060592 -5.482487 0.898895 -2.838186 1.114171 0.000000 0.000000 0.000000 10.127413 0.356758 -5.606323 -18.382425 18.320331 11.167010 4.691070 27.995545 -7.927698 0.000000 0.000000 0.000000 10.758821 -0.269697 -5.108882 -6.632827 -11.536451 -5.303213 -0.959781 -0.049459 -3.638398 -21.995434 6.193634 -33.368148 3.116800 -43.916545 4.726912 0.000000 0.000000 0.000000 9.479255 -0.120097 -5.086527 -5.069953 10.896885 5.249194 4.207492 2.022173 -0.241430 -34.029662 -22.333283 38.102282 -156.852753 66.897591 150.558119 0.000000 0.000000 0.000000 
0.285154 77.015961 0.827633 0.000000 0.000000 0.000000 2.621089 -62.576718 6.421054 -33.002610 6.577525 28.562244 41.778986 -7.965814 -9.904378 -9.812281 -2.697300 -8.236439 0.235344 0.567203 0.288298 0.000000 0.000000 0.000000 1.517101 -61.266722 6.191355 -27.224333 -4.788528 -38.224187 43.132122 8.590727 -2.836319 -19.740135 -1.544907 26.292458 3.993243 0.476090 0.686984 0.000000 0.000000 0.000000 2.585064 -61.514514 6.214251 10.000095 1.707473 -2.577544 9.323722 0.056001 -5.361238 0.990904 -2.647522 1.017524 0.000000 0.000000 0.000000 10.075714 0.340219 -5.512378 -18.319443 17.029803 11.362547 4.610594 26.903244 -8.866892 0.000000 0.000000 0.000000 10.639997 -0.291205 -4.967014 -6.729361 -11.640888 -5.703360 -1.249461 -0.105632 -3.655995 -22.273339 5.794500 -33.135748 3.356296 -43.903923 5.647830 0.000000 0.000000 0.000000 9.364323 -0.145769 -4.997713 -5.210426 10.935018 5.855142 4.055658 2.176519 -0.133338 -34.432647 -22.485191 38.048265 -156.572251 69.052482 148.531520 0.000000 0.000000 0.000000 
0.533876 77.185486 1.447304 0.000000 0.000000 0.000000 2.805980 -62.613430 6.658115 -32.729905 6.763050 27.833721 42.160026 -7.733179 -9.911154 -10.518673 -2.699382 -7.551062 0.258976 0.550072 0.333306 0.000000 0.000000 0.000000 1.750899 -61.263498 6.442896 -26.836064 -5.105681 -38.928513 41.611254 8.715181 -2.655822 -18.906715 -1.422856 26.962206 3.861832 0.445052 0.666145 0.000000 0.000000 0.000000 2.769445 -61.466880 6.382744 9.872964 1.728493 -2.646853 9.310621 0.051369 -5.249084 1.022120 -2.406775 0.917969 0.000000 0.000000 0.000000 9.995984 0.326549 -5.431893 -18.225865 15.418942 11.544114 4.506789 25.424187 -9.861709 0.000000 0.000000 0.000000 10.501019 -0.312074 -4.838042 -6.837456 -11.741686 -6.186367 -1.548826 -0.211909 -3.658072 -22.384475 5.680857 -32.955512 3.642589 -44.412526 6.690505 0.000000 0.000000 0.000000 9.246780 -0.165402 -4.928480 -5.380193 11.002984 6.621596 4.069157 2.317468 -0.057214 -35.062257 -22.377761 37.722742 -155.289829 71.587240 145.390631 0.000000 0.000000 0.000000 
0.774668 77.392670 2.119980 0.000000 0.000000 0.000000 3.022286 -62.691410 6.892772 -32.371152 7.003889 27.086423 42.463187 -7.428369 -9.897991 -11.246035 -2.661851 -6.845438 0.274888 0.541249 0.363590 0.000000 0.000000 0.000000 2.020837 -61.317859 6.696603 -26.445560 -5.445997 -39.583463 39.954226 8.786031 -2.417586 -17.935103 -1.252931 27.594265 3.750332 0.419723 0.645328 0.000000 0.000000 0.000000 2.933797 -61.413919 6.511969 9.750924 1.701669 -2.717070 9.256225 0.049268 -5.161722 0.987542 -2.096046 0.858643 0.000000 0.000000 0.000000 9.869660 0.319379 -5.377596 -18.073871 13.500986 11.646245 4.356851 23.486816 -10.817292 0.000000 0.000000 0.000000 10.332199 -0.332009 -4.742334 -6.959626 -11.830072 -6.756679 -1.847303 -0.329059 -3.639190 -22.498360 5.880528 -32.861341 4.045348 -45.387512 7.886602 0.000000 0.000000 0.000000 9.107628 -0.179863 -4.890576 -5.581333 11.087197 7.597082 4.263495 2.456728 -0.047347 -35.868732 -21.913161 37.129919 -152.325431 74.375050 140.557001 0.000000 0.000000 0.000000 
1.008603 77.628563 2.808041 0.000000 0.000000 0.000000 3.223303 -62.778270 7.086868 -31.972631 7.288558 26.365831 42.692589 -7.100287 -9.872315 -11.922981 -2.627491 -6.153525 0.255213 0.538489 0.391654 0.000000 0.000000 0.000000 2.286099 -61.398203 6.916069 -26.029117 -5.814391 -40.177655 38.163231 8.793727 -2.135598 -16.844747 -1.050531 28.161379 3.659190 0.399970 0.627162 0.000000 0.000000 0.000000 3.076989 -61.346826 6.596981 9.651567 1.636516 -2.796425 9.146046 0.050881 -5.104437 0.890686 -1.734470 0.854508 0.000000 0.000000 0.000000 9.692816 0.315434 -5.354354 -17.820018 11.316216 11.628990 4.135166 21.032575 -11.623822 0.000000 0.000000 0.000000 10.121423 -0.351252 -4.682751 -7.091638 -11.899215 -7.400401 -2.139628 -0.416493 -3.582506 -22.793123 6.260224 -32.867789 4.545438 -46.568421 9.222162 0.000000 0.000000 0.000000 8.931891 -0.190736 -4.882967 -5.807874 11.153025 8.805566 4.547599 2.587973 -0.049091 -36.740619 -21.076992 36.368640 -146.340013 77.311102 132.775927 0.000000 0.000000 0.000000 
1.237446 77.883606 3.469288 0.000000 0.000000 0.000000 3.371858 -62.827966 7.206543 -31.586954 7.602482 25.715278 42.851453 -6.785633 -9.840807 -12.509018 -2.627154 -5.491006 0.206488 0.540128 0.430696 0.000000 0.000000 0.000000 2.502241 -61.463923 7.065874 -25.581736 -6.218601 -40.712435 36.308763 8.742602 -1.831772 -15.656131 -0.817635 28.667796 3.569868 0.387397 0.613081 0.000000 0.000000 0.000000 3.165944 -61.260554 6.619704 9.593013 1.533586 -2.896655 8.971652 0.047366 -5.076504 0.772478 -1.389231 0.868066 0.000000 0.000000 0.000000 9.464281 0.305769 -5.360133 -17.434111 8.921157 11.457101 3.843860 18.019596 -12.197315 0.000000 0.000000 0.000000 9.861303 -0.376058 -4.658994 -7.232963 -11.956700 -8.108784 -2.400380 -0.463679 -3.482246 -23.392145 6.653752 -32.988902 5.058152 -47.704015 10.622424 0.000000 0.000000 0.000000 8.717906 -0.202408 -4.896416 -6.055998 11.147610 10.232060 4.765242 2.708717 -0.114490 -37.574595 -19.900094 35.542501 -135.068521 80.088722 119.861856 0.000000 0.000000 0.000000 
